# xmcd CD database file
#
# Track frame offsets:
#	750
#	19267
#	38061
#	63494
#	86640
#	101018
#	119592
#	143650
#	160436
#	182173
#	201026
#	231148
#
# Disc length: 3089 seconds
#
# Revision: 0
# Processed by: cddbd v1.4PL0 Copyright (c) Steve Scherf et al.
# Submitted via: CDex 1.40Beta8
#
DISCID=a40c070c
DTITLE=Deák Bill Gyula - Bill Kapitány Blues Cirkusza
DYEAR=2001
DGENRE=Blues
TTITLE0=Bill Kapitány Blues I
TTITLE1=Romalány Blues
TTITLE2=Rekedten száll az ének
TTITLE3=Kocsma Blues
TTITLE4=Halálos tánc
TTITLE5=Fekete vonat Blues
TTITLE6=Bill Kapitány Blues Cirkusza
TTITLE7=Elképesztõ Blues
TTITLE8=Gyermekeim
TTITLE9=Üvöltsön a szél
TTITLE10=Bill Kapitány Blues I (Koncertfelvétel)
TTITLE11=Copy Protection
EXTD=YEAR: 2001 ID3G: 0
EXTT0=
EXTT1=
EXTT2=
EXTT3=
EXTT4=
EXTT5=
EXTT6=
EXTT7=
EXTT8=
EXTT9=
EXTT10=
EXTT11=
PLAYORDER=
